{"title":"Kala Pani 1958 1CD DvDrip x264 ~ Crime | Musical | Romance ~ [Rd","uid":6667078,"size":729696977,"categoryP":"video","categoryS":"movies","magnet":"?xt=urn:btih:81b172c38ef6aa6c2368f80257db96f18f221eec&amp;dn=Kala+Pani+1958+1CD+DvDrip+x264+%7E+Crime+%7C+Musical+%7C+Romance+%7E+%5BRd&amp;tr=udp%3A%2F%2Ftracker.openbittorrent.com%3A80&amp;tr=udp%3A%2F%2Fopen.demonii.com%3A1337&amp;tr=udp%3A%2F%2Ftracker.coppersurfer.tk%3A6969&amp;tr=udp%3A%2F%2Fexodus.desync.com%3A6969","seeders":0,"leechers":0,"uploader":"ilyas2000pk","files":-1,"time":1315731002,"description":"Color\nB\n\nRelease Date\n1958\n\nGenre\nCrime  /  Musical  /  Social  /  Romance\n\nProducer\nDev Anand\n\nExecutive Producer / Co-Producer\nBrij Mohan\n\nDirector\nRaj Khosla\n\nStar Cast\nDev Anand...... Karan Mehra\nMadhubala...... Asha\nNalini...... Kishori\nJaywant\nSapru...... Diwan Sardarilal\nJohny Walker\nAgha...... Badru\nMukri...... Madhosh Miyan\nKishore Sahu...... Rai Bahadur Jaswant Rai\nNasir Hussain...... Inspector Mehta\nKrishan Dhawan...... Jumman\nM A Lalif\nJankidas...... Daulat Chand\nBir Sakuja...... Editor at the press company\nParveen Paul...... Hotel Owner\nMumtaz Begum...... Karan's mother\nHeera Sawant\nR P Kapoor\nShyam\nPrem Kumar\nSamson\nRavikant\nRashid Khan...... Ramdas\n\nSingers\nAsha Bhosle\nMohammed Rafi\n\nLyricist\nMajrooh Sultanpuri\n\nMusic Director\nS D Burman\nJaidev\n\nChoreography\nMaharaj\nSatyanarayan\n\nArt\nBiren Nag\n\nSound\nMinoo Katrak\n\nDialogue\nBhappi Sonie\n\nCostume\nVishwanath\n\nStory / Writer\nAnand Pal\n\n\n\nGeneral\nName                             : Kala Pani 1958 1CD DvDrip x264 ~ Crime | Musical | Romance ~ [RdY]\nFormat                           : MPEG-4\nFormat profile                   : Base Media\nCodec ID                         : isom\nFile size                        : 696 MiB\nDuration                         : 2h 17mn\nOverall bit rate                 : 708 Kbps\nEncoded date                     : UTC 2009-07-21 17:50:39\nTagged date                      : UTC 2009-07-21 17:50:39\n\n\nVideo\nID                               : 1\nFormat                           : AVC\nFormat/Info                      : Advanced Video Codec\nFormat profile                   : &lt;a class=&quot;__cf_email__&quot; href=&quot;/cdn-cgi/l/email-protection&quot; data-cfemail=&quot;6f270608072f235c415f&quot;&gt;[email&amp;#160;protected]&lt;/a&gt;&lt;script data-cfhash='f9e31' type=&quot;text/javascript&quot;&gt;\n/* &lt;![CDATA[ */!function(){try{var t=&quot;currentScript&quot;in document?document.currentScript:function(){for(var t=document.getElementsByTagName(&quot;script&quot;),e=t.length;e--;)if(t[e].getAttribute(&quot;data-cfhash&quot;))return t[e]}();if(t&amp;&amp;t.previousSibling){var e,r,n,i,c=t.previousSibling,a=c.getAttribute(&quot;data-cfemail&quot;);if(a){for(e=&quot;&quot;,r=parseInt(a.substr(0,2),16),n=2;a.length-n;n+=2)i=parseInt(a.substr(n,2),16)^r,e+=String.fromCharCode(i);e=document.createTextNode(e),c.parentNode.replaceChild(e,c)}t.parentNode.removeChild(t);}}catch(u){}}()/* ]]&gt; */&lt;/script&gt;\nFormat settings, CABAC           : Yes\nFormat settings, ReFrames        : 5 frames\nCodec ID                         : avc1\nCodec ID/Info                    : Advanced Video Coding\nDuration                         : 2h 17mn\nBit rate mode                    : Variable\nBit rate                         : 641 Kbps\nMaximum bit rate                 : 2 180 Kbps\nWidth                            : 640 pixels\nHeight                           : 480 pixels\nDisplay aspect ratio             : 4/3\nFrame rate mode                  : Constant\nFrame rate                       : 23.976 fps\nResolution                       : 24 bits\nColorimetry                      : 4.2.0\nScan type                        : Progressive\nBits/(Pixel*Frame)               : 0.087\nStream size                      : 630 MiB (91%)\nWriting library                  : x264 core 68 r1179M 96e2229\n\n\nAudio\nID                               : 2\nFormat                           : AAC\nFormat/Info                      : Advanced Audio Codec\nFormat version                   : Version 4\nFormat profile                   : LC\nFormat settings, SBR             : Yes\nFormat settings, PS              : No\nCodec ID                         : 40\nDuration                         : 2h 17mn\nBit rate mode                    : Variable\nBit rate                         : 63.8 Kbps\nMaximum bit rate                 : 76.6 Kbps\nChannel(s)                       : 6 channels\nChannel positions                : Front: L C R, Rear: L R, LFE\nSampling rate                    : 48.0 KHz\nResolution                       : 16 bits\nStream size                      : 62.7 MiB (9%)\n","torrent":{"xt":"urn:btih:81b172c38ef6aa6c2368f80257db96f18f221eec","amp;dn":"Kala+Pani+1958+1CD+DvDrip+x264+%7E+Crime+%7C+Musical+%7C+Romance+%7E+%5BRd","amp;tr":["udp%3A%2F%2Ftracker.openbittorrent.com%3A80","udp%3A%2F%2Fopen.demonii.com%3A1337","udp%3A%2F%2Ftracker.coppersurfer.tk%3A6969","udp%3A%2F%2Fexodus.desync.com%3A6969"],"infoHash":"81b172c38ef6aa6c2368f80257db96f18f221eec","infoHashBuffer":{"type":"Buffer","data":[129,177,114,195,142,246,170,108,35,104,248,2,87,219,150,241,143,34,30,236]},"announce":[],"urlList":[]}}